:SAMPLES-PER-SECOND 30
:FRAME-RANGE 1-1390
:FULLY-SPECIFIED
:DEGREES
1130
root  -43.6658 37.4004 -50.5922 172.073 48.8242 177.551
RightUpLeg  -83.4782 -8.07111 55.5238
RightLeg  122.7 4.37988 -5.64069
RightFoot  -35.75 0.282206 2.43355
RightToes  6.35937e-011 1.2921e-014 -6.02303e-014
Spine  16.0013 -2.86322 5.83554
Spine1  -0.876481 0.415473 -3.13472
HEad  29.4024 -4.21044 3.37383
LeftShoulder1  3.42344 -10.6308 -18.2321
LeftArm  31.6609 -24.1419 -66.7636
LeftForeArm  33.6813 0.74725 -17.9514
LeftHand  -0.0263198 6.16794 0.926158
RightShoulder  2.61732 6.39437 20.7346
RightArm  5.23732 33.5858 97.7882
RightForeArm  120.386 -4.03038 9.6746
RightHand  1.43433 -21.1911 -10.8907
LeftUpLeg  -14.0718 -19.1796 -9.64486
LeftLeg  37.6457 13.0896 10.9933
LeftFoot  -13.4034 0.11455 1.89225
LeftToes  4.52251e-011 4.07896e-011 -5.42348e-012
1131
root  -43.4658 37.0492 -50.7371 170.404 50.4386 177.534
RightUpLeg  -82.3603 -8.4498 55.8245
RightLeg  124.512 4.12256 -4.91234
RightFoot  -35.9416 0.315355 2.57225
RightToes  6.35937e-011 1.2921e-014 -6.02303e-014
Spine  15.3623 -2.76909 5.67377
Spine1  -0.374397 0.175932 -2.1844
HEad  30.3418 -3.34143 2.7178
LeftShoulder1  3.40549 -10.6595 -18.0382
LeftArm  33.3123 -22.9178 -67.0728
LeftForeArm  31.3969 0.228323 -18.0939
LeftHand  -0.0285293 5.63905 0.67821
RightShoulder  2.65869 6.24768 21.641
RightArm  3.75619 33.1575 97.2666
RightForeArm  121.791 -3.84823 8.92241
RightHand  1.35254 -20.7297 -10.6152
LeftUpLeg  -13.3857 -18.5401 -10.2058
LeftLeg  41.1357 13.3355 12.57
LeftFoot  -15.1848 0.114202 0.687934
LeftToes  4.52251e-011 4.07896e-011 -5.42348e-012
1132
root  -43.2728 36.6439 -50.8644 167.886 51.9084 177.138
RightUpLeg  -81.1815 -8.84873 55.0979
RightLeg  126.547 4.06187 -4.4655
RightFoot  -35.8044 0.13531 1.75208
RightToes  6.35937e-011 1.2921e-014 -6.02303e-014
Spine  15.0389 -2.87871 5.61101
Spine1  -0.120959 -0.192777 -1.64634
HEad  31.9254 -2.692 2.47632
LeftShoulder1  3.38385 -10.4674 -18.2371
LeftArm  34.2989 -21.521 -67.0439
LeftForeArm  29.4612 -0.113507 -18.1963
LeftHand  -0.0242246 3.88036 0.255041
RightShoulder  2.64957 6.01694 22.2692
RightArm  3.05884 32.4688 97.2162
RightForeArm  124.642 -3.67674 8.64208
RightHand  1.20612 -20.521 -9.68581
LeftUpLeg  -12.1768 -16.2079 -10.8122
LeftLeg  44.3096 12.3636 13.0268
LeftFoot  -17.2237 0.0906341 -0.246775
LeftToes  4.52251e-011 4.07896e-011 -5.42348e-012
1133
root  -43.0455 36.2911 -50.8962 165.204 52.5876 176.734
RightUpLeg  -80.1696 -9.06591 54.0544
RightLeg  128.083 4.33386 -4.53043
RightFoot  -35.927 0.0419961 1.31874
RightToes  6.35937e-011 1.2921e-014 -6.02303e-014
Spine  15.2056 -3.16335 5.31945
Spine1  -0.145781 -0.785674 -0.886448
HEad  32.3817 -1.92932 2.15315
LeftShoulder1  3.37262 -10.3251 -18.426
LeftArm  32.9908 -20.4019 -67.3163
LeftForeArm  28.8597 0.191081 -18.2061
LeftHand  -0.0272436 4.08524 0.482791
RightShoulder  2.61806 5.79835 22.6246
RightArm  3.7809 31.8901 97.1128
RightForeArm  126.691 -3.70058 9.35832
RightHand  1.14483 -20.9299 -9.00809
LeftUpLeg  -10.6617 -12.3219 -10.6856
LeftLeg  46.4994 9.92214 11.4389
LeftFoot  -19.2384 0.0929525 -0.325364
LeftToes  4.52251e-011 4.07896e-011 -5.42348e-012
1134
root  -42.8273 36.0862 -50.8251 162.304 53.0421 175.501
RightUpLeg  -79.971 -9.24121 53.11
RightLeg  129.474 4.60553 -4.60162
RightFoot  -35.774 -0.0489383 0.902173
RightToes  6.35937e-011 1.2921e-014 -6.02303e-014
Spine  15.1612 -3.26354 5.16021
Spine1  -0.208523 -0.997044 -0.971183
HEad  31.5778 -0.474464 1.61214
LeftShoulder1  3.36316 -10.3043 -18.3919
LeftArm  36.0778 -19.8633 -67.8408
LeftForeArm  26.2426 -0.702793 -18.3504
LeftHand  -0.0269138 4.02658 0.47456
RightShoulder  2.57017 5.6229 22.6527
RightArm  3.56001 31.2611 97.0936
RightForeArm  127.772 -3.66839 9.45112
RightHand  1.09693 -21.0977 -8.57987
LeftUpLeg  -9.18227 -7.60718 -10.2502
LeftLeg  47.3495 7.21495 8.75863
LeftFoot  -20.4798 0.158503 0.445419
LeftToes  4.52251e-011 4.07896e-011 -5.42348e-012
1135
root  -42.5999 36.0898 -50.6267 160.546 53.3197 174.667
RightUpLeg  -80.7005 -9.63579 53.2672
RightLeg  130.357 4.62728 -4.47416
RightFoot  -35.4754 -0.0864484 0.728317
RightToes  6.35937e-011 1.2921e-014 -6.02303e-014
Spine  14.8636 -3.23435 5.21578
Spine1  -0.549912 -0.944725 -1.20114
HEad  30.5207 1.77791 0.605232
LeftShoulder1  3.33179 -10.2598 -18.2297
LeftArm  41.6715 -19.5729 -68.3533
LeftForeArm  22.3027 -2.22787 -18.4633
LeftHand  -0.0266803 3.9799 0.345749
RightShoulder  2.53997 5.65564 22.182
RightArm  3.18458 30.8934 96.9814
RightForeArm  127.33 -3.67488 9.37127
RightHand  1.08604 -21.1456 -8.47884
LeftUpLeg  -8.33856 -3.17633 -8.85771
LeftLeg  47.5563 4.21254 5.37449
LeftFoot  -20.3613 0.211994 1.13811
LeftToes  4.52251e-011 4.07896e-011 -5.42348e-012
1136
root  -42.3673 36.4288 -50.2132 160.289 53.4113 174.914
RightUpLeg  -81.8987 -10.4512 54.9728
RightLeg  130.275 5.0951 -4.99761
RightFoot  -35.4108 0.0121439 1.19075
RightToes  6.35937e-011 1.2921e-014 -6.02303e-014
Spine  14.2965 -3.05195 5.14616
Spine1  -0.881583 -0.746033 -1.18068
HEad  29.9547 3.88317 0.0852461
LeftShoulder1  3.2813 -10.2535 -17.8388
LeftArm  45.7332 -19.6469 -69.0614
LeftForeArm  20.0502 -3.36613 -18.4328
LeftHand  -0.0274419 4.10343 0.500063
RightShoulder  2.53724 5.66547 22.1165
RightArm  3.27105 31.1151 95.9686
RightForeArm  124.918 -3.83159 9.6972
RightHand  1.15571 -20.3179 -9.43714
LeftUpLeg  -7.61508 0.887916 -6.27579
LeftLeg  46.4321 0.960732 1.5294
LeftFoot  -18.4139 0.204433 1.51956
LeftToes  4.52251e-011 4.07896e-011 -5.42348e-012
